<svg width="111" height="111" viewBox="0 0 111 111" fill="none" xmlns="http://www.w3.org/2000/svg">
<rect width="111" height="111" rx="55.5" fill="#E1EEF3"/>
<path d="M67.2918 50.875C67.2918 49.4578 67.0127 48.0545 66.4704 46.7452C65.928 45.4359 65.1331 44.2462 64.131 43.2441C63.1289 42.2421 61.9393 41.4471 60.63 40.9048C59.3207 40.3625 57.9173 40.0833 56.5002 40.0833C55.083 40.0833 53.6797 40.3625 52.3704 40.9048C51.0611 41.4471 49.8714 42.2421 48.8693 43.2441C47.8672 44.2462 47.0723 45.4359 46.53 46.7452C45.9876 48.0545 45.7085 49.4578 45.7085 50.875C45.7085 53.0133 46.3406 55.0021 47.412 56.6794H47.3997C51.038 62.3758 56.5002 70.9167 56.5002 70.9167L65.6006 56.6794H65.5898C66.7005 54.9471 67.2911 52.9327 67.2918 50.875ZM56.5002 55.5C55.2735 55.5 54.0971 55.0127 53.2298 54.1454C52.3624 53.278 51.8752 52.1016 51.8752 50.875C51.8752 49.6484 52.3624 48.472 53.2298 47.6046C54.0971 46.7373 55.2735 46.25 56.5002 46.25C57.7268 46.25 58.9032 46.7373 59.7705 47.6046C60.6379 48.472 61.1252 49.6484 61.1252 50.875C61.1252 52.1016 60.6379 53.278 59.7705 54.1454C58.9032 55.0127 57.7268 55.5 56.5002 55.5Z" fill="#1979A3"/>
</svg>
