<svg width="66" height="57" viewBox="0 0 66 57" fill="none" xmlns="http://www.w3.org/2000/svg">
<rect width="44" height="44" fill="#1979A3" fill-opacity="0.47"/>
<rect x="22" y="13" width="44" height="44" fill="#1979A3"/>
<path d="M38.3934 32.0625H36.5051V29.4003H38.3934V32.0625H38.3934ZM49.2901 33.6189H47.5975V36.281H49.2901V33.6189ZM38.3934 33.6189H36.5051V36.281H38.3934V33.6189ZM52.7665 30.1665L49.6349 29.9988L49.6349 31.464L52.7665 31.2675V30.1665ZM49.2901 29.4003H47.5975V32.0625H49.2901V29.4003ZM52.7665 34.3851L49.6349 34.2173V35.6826L52.7665 35.4861V34.3851V34.3851ZM41.1897 38.3405H47.222V28.8236C47.222 28.3592 46.8456 27.9827 46.3811 27.9827H39.5567C39.0923 27.9827 38.7158 28.3592 38.7158 28.8236V44.4423L41.1898 38.3405H41.1897ZM38.3934 42.056H36.5051V44.7181H38.3934V42.056ZM33 31.2675L36.1316 31.464V29.9988L33 30.1665V31.2675H33ZM33 43.9232L36.1316 44.1197V42.6544L33 42.8222V43.9232ZM38.3934 37.8375H36.5051V40.4996H38.3934V37.8375ZM33 35.4861L36.1316 35.6826V34.2173L33 34.3851V35.4861H33ZM33 39.7047L36.1316 39.9011V38.4359L33 38.6036V39.7047ZM43.455 39.1998L45.9428 44.7181H44.2982L43.8557 43.758H41.5516L41.1508 44.7181H39.5312L41.7686 39.1998H43.455V39.1998ZM41.9106 42.6561H43.3965L42.6118 40.761L41.9106 42.6561ZM45.9387 39.1998L47.3412 42.5392L48.823 39.1998H50.4864L47.3412 46.0173L44.2961 39.1998H45.9386H45.9387ZM53.206 42.5392L53.974 44.7181H52.2709L51.747 42.7374H51.3672L50.4844 44.7181H48.823L51.2691 39.1998H53.4313C55.6121 39.2953 55.5025 42.2111 53.2059 42.5392H53.206ZM52.9638 40.2601H52.3711L51.7794 41.5791H52.5047C53.5727 41.5306 53.7244 40.3761 52.9638 40.2601Z" fill="white"/>
</svg>
