<svg width="75" height="75" viewBox="0 0 75 75" fill="none" xmlns="http://www.w3.org/2000/svg">
<rect width="75" height="75" fill="#E7E7E7"/>
<rect x="17" y="22" width="28.5614" height="28.5614" fill="#86C89E"/>
<rect x="31.2808" y="30.4385" width="28.5614" height="28.5614" fill="#088E3B"/>
<g clip-path="url(#clip0)">
<path d="M41.9221 42.8124H40.6964V41.0843H41.9221V42.8124H41.9221ZM48.9954 43.8227H47.8967V45.5507H48.9954V43.8227ZM41.9221 43.8227H40.6964V45.5507H41.9221V43.8227ZM51.252 41.5816L49.2192 41.4728L49.2192 42.4239L51.252 42.2963V41.5816ZM48.9954 41.0843H47.8967V42.8124H48.9954V41.0843ZM51.252 44.32L49.2192 44.2111V45.1623L51.252 45.0347V44.32V44.32ZM43.7373 46.8875H47.653V40.7099C47.653 40.4085 47.4086 40.1641 47.1071 40.1641H42.6772C42.3758 40.1641 42.1314 40.4085 42.1314 40.7099V50.8484L43.7373 46.8875H43.7373ZM41.9221 49.2994H40.6964V51.0274H41.9221V49.2994ZM38.4211 42.2963L40.4539 42.4239V41.4728L38.4212 41.5816V42.2963H38.4211ZM38.4211 50.5114L40.4539 50.639V49.6878L38.4211 49.7967V50.5114ZM41.9221 46.561H40.6964V48.2891H41.9221V46.561ZM38.4211 45.0347L40.4539 45.1623V44.2111L38.4212 44.32V45.0347H38.4211ZM38.4211 47.7731L40.4539 47.9006V46.9495L38.4211 47.0584V47.7731ZM45.2077 47.4454L46.8226 51.0274H45.7551L45.4678 50.4042H43.9722L43.712 51.0274H42.6607L44.1131 47.4454H45.2077V47.4454ZM44.2052 49.6889H45.1698L44.6604 48.4588L44.2052 49.6889ZM46.8199 47.4454L47.7303 49.613L48.6922 47.4454H49.772L47.7304 51.8708L45.7537 47.4454H46.8199H46.8199ZM51.5373 49.613L52.0358 51.0274H50.9303L50.5903 49.7417H50.3437L49.7706 51.0274H48.6922L50.28 47.4454H51.6836C53.0992 47.5073 53.028 49.4001 51.5373 49.613H51.5373ZM51.3801 48.1336H50.9954L50.6113 48.9898H51.0821C51.7754 48.9583 51.8738 48.2089 51.3801 48.1336Z" fill="white"/>
</g>
<defs>
<clipPath id="clip0">
<rect width="14.2807" height="14.2807" fill="white" transform="translate(38.4211 38.877)"/>
</clipPath>
</defs>
</svg>
