<svg width="111" height="111" viewBox="0 0 111 111" fill="none" xmlns="http://www.w3.org/2000/svg">
<rect width="111" height="111" rx="55.5" fill="#1979A3" fill-opacity="0.13"/>
<path d="M68.8335 53.9568H71.9168C71.9168 46.048 65.9459 40.0833 58.0264 40.0833V43.1667C64.2886 43.1667 68.8335 47.7038 68.8335 53.9568Z" fill="#1979A3"/>
<path d="M58.0416 49.3333C61.2837 49.3333 62.6666 50.7162 62.6666 53.9583H65.7499C65.7499 48.9865 63.0135 46.25 58.0416 46.25V49.3333ZM63.3172 57.7246C63.021 57.4554 62.6317 57.3118 62.2316 57.3241C61.8314 57.3365 61.4518 57.5039 61.1727 57.7909L57.4835 61.5849C56.5955 61.4154 54.8103 60.8588 52.9726 59.0258C51.1349 57.1866 50.5784 55.3967 50.4134 54.5149L54.2044 50.8241C54.4918 50.5453 54.6594 50.1655 54.6718 49.7653C54.6842 49.3651 54.5403 48.9757 54.2707 48.6797L48.5742 42.4159C48.3045 42.1189 47.9296 41.9387 47.5292 41.9137C47.1288 41.8886 46.7344 42.0207 46.4298 42.2817L43.0844 45.1508C42.8178 45.4183 42.6587 45.7743 42.6373 46.1513C42.6142 46.5367 42.1732 55.6665 49.2526 62.7489C55.4285 68.9233 63.1646 69.375 65.2952 69.375C65.6066 69.375 65.7977 69.3657 65.8486 69.3627C66.2256 69.3416 66.5814 69.1818 66.8476 68.914L69.7151 65.5671C69.9764 65.2626 70.1087 64.8684 70.0839 64.4679C70.0592 64.0675 69.8793 63.6926 69.5825 63.4226L63.3172 57.7246Z" fill="#1979A3"/>
</svg>
