<svg width="111" height="111" viewBox="0 0 111 111" fill="none" xmlns="http://www.w3.org/2000/svg">
<rect width="111" height="111" rx="55.5" fill="#E1EEF3"/>
<path d="M71.5312 42.7812H41.4688C40.8292 42.7812 40.3125 43.2979 40.3125 43.9375V67.0625C40.3125 67.7021 40.8292 68.2188 41.4688 68.2188H71.5312C72.1708 68.2188 72.6875 67.7021 72.6875 67.0625V43.9375C72.6875 43.2979 72.1708 42.7812 71.5312 42.7812ZM68.6117 46.7161L57.2118 55.5867C56.93 55.8071 56.5361 55.8071 56.2543 55.5867L44.8508 46.7161C44.8078 46.6829 44.7763 46.6371 44.7606 46.5851C44.745 46.5332 44.746 46.4776 44.7635 46.4262C44.781 46.3748 44.8142 46.3302 44.8584 46.2986C44.9025 46.267 44.9555 46.25 45.0098 46.25H68.4527C68.507 46.25 68.56 46.267 68.6041 46.2986C68.6483 46.3302 68.6815 46.3748 68.699 46.4262C68.7165 46.4776 68.7175 46.5332 68.7019 46.5851C68.6862 46.6371 68.6547 46.6829 68.6117 46.7161Z" fill="#1979A3"/>
</svg>
