<svg width="43" height="37" viewBox="0 0 43 37" fill="none" xmlns="http://www.w3.org/2000/svg">
<rect width="28.5614" height="28.5614" fill="#86C89E"/>
<rect x="14.2808" y="8.43848" width="28.5614" height="28.5614" fill="#088E3B"/>
<g clip-path="url(#clip0)">
<path d="M24.9221 20.8124H23.6964V19.0843H24.9221V20.8124H24.9221ZM31.9954 21.8227H30.8967V23.5507H31.9954V21.8227ZM24.9221 21.8227H23.6964V23.5507H24.9221V21.8227ZM34.252 19.5816L32.2192 19.4728L32.2192 20.4239L34.252 20.2963V19.5816ZM31.9954 19.0843H30.8967V20.8124H31.9954V19.0843ZM34.252 22.32L32.2192 22.2111V23.1623L34.252 23.0347V22.32V22.32ZM26.7373 24.8875H30.653V18.7099C30.653 18.4085 30.4086 18.1641 30.1071 18.1641H25.6772C25.3758 18.1641 25.1314 18.4085 25.1314 18.7099V28.8484L26.7373 24.8875H26.7373ZM24.9221 27.2994H23.6964V29.0274H24.9221V27.2994ZM21.4211 20.2963L23.4539 20.4239V19.4728L21.4212 19.5816V20.2963H21.4211ZM21.4211 28.5114L23.4539 28.639V27.6878L21.4211 27.7967V28.5114ZM24.9221 24.561H23.6964V26.2891H24.9221V24.561ZM21.4211 23.0347L23.4539 23.1623V22.2111L21.4212 22.32V23.0347H21.4211ZM21.4211 25.7731L23.4539 25.9006V24.9495L21.4211 25.0584V25.7731ZM28.2077 25.4454L29.8226 29.0274H28.7551L28.4678 28.4042H26.9722L26.712 29.0274H25.6607L27.1131 25.4454H28.2077V25.4454ZM27.2052 27.6889H28.1698L27.6604 26.4588L27.2052 27.6889ZM29.8199 25.4454L30.7303 27.613L31.6922 25.4454H32.772L30.7304 29.8708L28.7537 25.4454H29.8199H29.8199ZM34.5373 27.613L35.0358 29.0274H33.9303L33.5903 27.7417H33.3437L32.7706 29.0274H31.6922L33.28 25.4454H34.6836C36.0992 25.5073 36.028 27.4001 34.5373 27.613H34.5373ZM34.3801 26.1336H33.9954L33.6113 26.9898H34.0821C34.7754 26.9583 34.8738 26.2089 34.3801 26.1336Z" fill="white"/>
</g>
<defs>
<clipPath id="clip0">
<rect width="14.2807" height="14.2807" fill="white" transform="translate(21.4211 16.877)"/>
</clipPath>
</defs>
</svg>
