<svg width="86" height="75" viewBox="0 0 86 75" fill="none" xmlns="http://www.w3.org/2000/svg">
<rect width="57.3333" height="57.3333" fill="#86C89E"/>
<rect x="28.6667" y="16.939" width="57.3333" height="57.3333" fill="#088E3B"/>
<g clip-path="url(#clip0)">
<path d="M50.0281 41.778H47.5675V38.3091H50.0279V41.778H50.0281ZM64.2267 43.8061H62.0212V47.2749H64.2267V43.8061ZM50.028 43.8061H47.5675V47.2749H50.028V43.8061V43.8061ZM68.7566 39.3075L64.676 39.0889L64.676 40.9982L68.7566 40.7422V39.3075ZM64.2267 38.3091H62.0212V41.778H64.2267V38.3091V38.3091ZM68.7566 44.8045L64.676 44.5859V46.4951L68.7566 46.2392V44.8044V44.8045ZM53.6717 49.9584H61.532V37.5576C61.532 36.9525 61.0414 36.4619 60.4362 36.4619H51.5438C50.9387 36.4619 50.4481 36.9525 50.4481 37.5576V57.9093L53.6717 49.9584H53.6717ZM50.028 54.7998H47.5675V58.2687H50.028V54.7998V54.7998ZM43.0002 40.7422L47.0808 40.9982V39.0889L43.0003 39.3075V40.7422H43.0002ZM43.0002 57.2329L47.0808 57.4889V55.5797L43.0002 55.7983V57.2329V57.2329ZM50.028 49.303H47.5675V52.7719H50.028V49.303V49.303ZM43.0002 46.2391L47.0808 46.4951V44.5859L43.0003 44.8044V46.2391H43.0002ZM43.0002 51.736L47.0808 51.992V50.0828L43.0002 50.3013V51.736ZM56.6234 51.0782L59.8651 58.2687H57.7221L57.1456 57.0177H54.1432L53.621 58.2687H51.5107L54.426 51.0782H56.6234V51.0782ZM54.611 55.5818H56.5473L55.5247 53.1124L54.611 55.5818ZM59.8597 51.0782L61.6872 55.4295L63.6181 51.0782H65.7856L61.6873 59.9616L57.7193 51.0782H59.8597H59.8597ZM69.3292 55.4295L70.33 58.2687H68.1108L67.4282 55.6878H66.9333L65.7829 58.2687H63.6181L66.8054 51.0782H69.6229C72.4645 51.2026 72.3217 55.002 69.3292 55.4295H69.3292ZM69.0137 52.4598H68.2414L67.4704 54.1785H68.4154C69.8071 54.1153 70.0047 52.6109 69.0137 52.4598Z" fill="white"/>
</g>
<defs>
<clipPath id="clip0">
<rect width="28.6667" height="28.6667" fill="white" transform="translate(43.0002 33.8784)"/>
</clipPath>
</defs>
</svg>
