<svg width="66" height="57" viewBox="0 0 66 57" fill="none" xmlns="http://www.w3.org/2000/svg">
<rect width="44" height="44" fill="#088E3B" fill-opacity="0.49"/>
<rect x="22" y="13" width="44" height="44" fill="#088E3B"/>
<path d="M49.3472 23.6113H35.6528C35.0083 23.6113 34.4445 24.1752 34.4445 24.8197V49.3891H50.5556V24.8197C50.5556 24.1752 49.9917 23.6113 49.3472 23.6113ZM42.5 46.5697C41.2917 46.5697 40.2445 45.603 40.2445 44.3141C40.2445 43.0252 41.2917 42.1391 42.5 42.1391C43.7083 42.1391 44.7556 43.1058 44.7556 44.3947C44.7556 45.6835 43.7083 46.5697 42.5 46.5697ZM46.5278 40.2058H38.4722V38.9169H46.5278V40.2058ZM47.3333 31.3447H37.6667V30.0558H47.3333V31.3447ZM47.3333 28.1224H37.6667V26.8336H47.3333V28.1224Z" fill="white"/>
<path d="M42.5 45.3611C43.0339 45.3611 43.4667 44.9283 43.4667 44.3944C43.4667 43.8605 43.0339 43.4277 42.5 43.4277C41.9661 43.4277 41.5333 43.8605 41.5333 44.3944C41.5333 44.9283 41.9661 45.3611 42.5 45.3611Z" fill="white"/>
</svg>
