<svg width="66" height="57" viewBox="0 0 66 57" fill="none" xmlns="http://www.w3.org/2000/svg">
<rect width="44" height="44" fill="#1979A3" fill-opacity="0.47"/>
<rect x="22" y="13" width="44" height="44" fill="#1979A3"/>
<g clip-path="url(#clip0)">
<path d="M50.4994 43.0003L49.0003 43.0019V42H45.0003V43.0066L43.5009 43.0081C43.2253 43.0084 43.0019 43.2319 43.0016 43.5078L43 44.4994C42.9997 44.7759 43.2241 45.0003 43.5006 45L50.4994 44.9919C50.775 44.9916 50.9984 44.7681 50.9988 44.4925L51 43.5009C51.0003 43.2244 50.7759 43 50.4994 43.0003ZM55.2875 29.8356C55.2056 29.3534 54.7809 29 54.2831 29H39.7166C39.2188 29 38.7941 29.3534 38.7122 29.8356C36.8963 40.5363 37.0013 39.8775 37.0009 40C37 40.5413 37.4475 41 38.0197 41H55.9803C56.55 41 56.9963 40.545 56.9988 40.0066C56.9994 39.8791 57.1034 40.5363 55.2875 29.8356ZM45.1197 31H48.88L49.1853 34H44.8144L45.1197 31ZM42.7706 39H39.2216L39.8156 35.5H43.1272L42.7706 39ZM43.2797 34H40.07L40.5791 31H43.585L43.2797 34ZM44.3053 39L44.6616 35.5H49.3381L49.6944 39H44.3053ZM50.4147 31H53.4206L53.9297 34H50.72L50.4147 31ZM51.2291 39L50.8728 35.5H54.1844L54.7784 39H51.2291Z" fill="white"/>
</g>
<defs>
<clipPath id="clip0">
<rect width="20" height="16" fill="white" transform="translate(37 29)"/>
</clipPath>
</defs>
</svg>
