<svg width="75" height="75" viewBox="0 0 75 75" fill="none" xmlns="http://www.w3.org/2000/svg">
<rect width="75" height="75" fill="#E7E7E7"/>
<rect x="14" y="22" width="28.5613" height="28.5613" fill="#86C89E"/>
<rect x="28.2808" y="30.4385" width="28.5613" height="28.5613" fill="#088E3B"/>
<g clip-path="url(#clip0)">
<path d="M46.7801 49.9126L45.8071 49.9136V49.2633H43.2106V49.9167L42.2373 49.9177C42.0584 49.9179 41.9133 50.0629 41.9131 50.242L41.9121 50.8857C41.9119 51.0652 42.0576 51.2108 42.2371 51.2106L46.7801 51.2054C46.959 51.2052 47.1041 51.0601 47.1043 50.8812L47.1051 50.2376C47.1053 50.058 46.9596 49.9124 46.7801 49.9126ZM49.8882 41.3671C49.835 41.0541 49.5594 40.8247 49.2362 40.8247H39.7808C39.4576 40.8247 39.182 41.0541 39.1288 41.3671C37.9501 48.3131 38.0182 47.8855 38.018 47.965C38.0174 48.3164 38.3079 48.6142 38.6793 48.6142H50.3379C50.7077 48.6142 50.9974 48.3188 50.999 47.9693C50.9994 47.8865 51.067 48.3131 49.8882 41.3671ZM43.2881 42.1229H45.729L45.9271 44.0703H43.0899L43.2881 42.1229ZM41.7632 47.3159H39.4595L39.8451 45.044H41.9947L41.7632 47.3159ZM42.0937 44.0703H40.0102L40.3406 42.1229H42.2919L42.0937 44.0703ZM42.7594 47.3159L42.9907 45.044H46.0263L46.2576 47.3159H42.7594ZM46.7252 42.1229H48.6764L49.0068 44.0703H46.9233L46.7252 42.1229ZM47.2538 47.3159L47.0225 45.044H49.1721L49.5578 47.3159H47.2538Z" fill="white"/>
</g>
<defs>
<clipPath id="clip0">
<rect width="12.9824" height="10.3859" fill="white" transform="translate(38.0175 40.8247)"/>
</clipPath>
</defs>
</svg>
