<svg width="66" height="57" viewBox="0 0 66 57" fill="none" xmlns="http://www.w3.org/2000/svg">
<rect width="44" height="44" fill="#C4C4C4"/>
<rect x="22" y="13" width="44" height="44" fill="#DEDEDE"/>
<path d="M49.3472 23.6111H35.6528C35.0083 23.6111 34.4445 24.175 34.4445 24.8194V49.3889H50.5556V24.8194C50.5556 24.175 49.9917 23.6111 49.3472 23.6111ZM42.5 46.5694C41.2917 46.5694 40.2445 45.6028 40.2445 44.3139C40.2445 43.025 41.2917 42.1389 42.5 42.1389C43.7083 42.1389 44.7556 43.1055 44.7556 44.3944C44.7556 45.6833 43.7083 46.5694 42.5 46.5694ZM46.5278 40.2055H38.4722V38.9166H46.5278V40.2055ZM47.3333 31.3444H37.6667V30.0555H47.3333V31.3444ZM47.3333 28.1222H37.6667V26.8333H47.3333V28.1222Z" fill="#1979A3"/>
<path d="M42.5 45.3612C43.0339 45.3612 43.4667 44.9284 43.4667 44.3945C43.4667 43.8606 43.0339 43.4279 42.5 43.4279C41.9661 43.4279 41.5333 43.8606 41.5333 44.3945C41.5333 44.9284 41.9661 45.3612 42.5 45.3612Z" fill="#1979A3"/>
</svg>
