<svg width="75" height="75" viewBox="0 0 75 75" fill="none" xmlns="http://www.w3.org/2000/svg">
<rect width="75" height="75" fill="#E7E7E7"/>
<rect x="17" y="22" width="28.5594" height="28.5594" fill="#088E3B" fill-opacity="0.49"/>
<rect x="31.2793" y="30.4404" width="28.5594" height="28.5594" fill="#088E3B"/>
<path d="M49.0303 37.3228H40.1416C39.7233 37.3228 39.3573 37.6888 39.3573 38.1071V54.0545H49.8146V38.1071C49.8146 37.6888 49.4486 37.3228 49.0303 37.3228ZM44.586 52.2245C43.8017 52.2245 43.1219 51.5971 43.1219 50.7605C43.1219 49.9239 43.8017 49.3487 44.586 49.3487C45.3703 49.3487 46.05 49.9762 46.05 50.8128C46.05 51.6493 45.3703 52.2245 44.586 52.2245ZM47.2003 48.0938H41.9716V47.2572H47.2003V48.0938ZM47.7232 42.3423H41.4488V41.5057H47.7232V42.3423ZM47.7232 40.2508H41.4488V39.4142H47.7232V40.2508Z" fill="white"/>
<path d="M44.5861 51.4399C44.9326 51.4399 45.2135 51.159 45.2135 50.8125C45.2135 50.466 44.9326 50.1851 44.5861 50.1851C44.2395 50.1851 43.9586 50.466 43.9586 50.8125C43.9586 51.159 44.2395 51.4399 44.5861 51.4399Z" fill="white"/>
</svg>
