<svg width="21" height="21" viewBox="0 0 21 21" fill="none" xmlns="http://www.w3.org/2000/svg">
<path fill-rule="evenodd" clip-rule="evenodd" d="M14.3982 6.52313C14.5819 6.34105 14.8299 6.23857 15.0885 6.23786C15.3472 6.23714 15.5957 6.33825 15.7804 6.51931C15.9651 6.70038 16.0711 6.94685 16.0755 7.20545C16.0799 7.46405 15.9823 7.714 15.8039 7.90125L10.5644 14.4506C10.4744 14.5476 10.3657 14.6255 10.2449 14.6795C10.1241 14.7335 9.99358 14.7626 9.86126 14.7651C9.72893 14.7675 9.59747 14.7433 9.47473 14.6937C9.352 14.6442 9.24051 14.5705 9.14693 14.4769L5.67537 11.004C5.57865 10.9139 5.50108 10.8052 5.44728 10.6845C5.39348 10.5637 5.36455 10.4334 5.36221 10.3012C5.35988 10.169 5.3842 10.0377 5.4337 9.91515C5.48321 9.79258 5.5569 9.68124 5.65038 9.58776C5.74385 9.49429 5.8552 9.4206 5.97777 9.37109C6.10034 9.32158 6.23163 9.29727 6.3638 9.2996C6.49597 9.30193 6.62632 9.33086 6.74707 9.38466C6.86782 9.43847 6.9765 9.51604 7.06662 9.61275L9.81499 12.3598L14.3733 6.552C14.3814 6.54183 14.3902 6.53219 14.3996 6.52313H14.3982Z" fill="#46AA6C"/>
</svg>
