<svg width="16" height="16" viewBox="0 0 16 16" fill="none" xmlns="http://www.w3.org/2000/svg">
<path d="M4.65931 12.5453L3.41823 11.2796L5.05066 9.6797L5.85061 10.4959C5.92304 10.5704 6.01305 10.6255 6.11236 10.6561C6.21167 10.6867 6.31707 10.6918 6.41888 10.671C6.4909 10.6567 8.19888 10.307 9.24676 9.28001C10.2946 8.253 10.6786 6.55241 10.6944 6.48069C10.7168 6.3793 10.7136 6.27394 10.685 6.17412C10.6564 6.0743 10.6034 5.98318 10.5307 5.90901L9.73078 5.0928L11.3632 3.49289L12.6037 4.75855C12.5835 5.52277 12.3528 8.1987 10.228 10.2812C8.11013 12.3575 5.43941 12.54 4.65931 12.5453Z" fill="#5F5F5F"/>
<path d="M4.65915 13.7956L4.64165 13.7954C4.31166 13.7921 4.00111 13.659 3.76725 13.4204L2.08939 11.7084C2.03188 11.6498 1.98649 11.5805 1.95581 11.5043C1.92513 11.4282 1.90976 11.3468 1.91059 11.2647C1.91142 11.1826 1.92842 11.1015 1.96062 11.026C1.99283 10.9505 2.0396 10.8821 2.09828 10.8247L4.6233 8.34996C4.68187 8.29245 4.75121 8.24706 4.82734 8.21638C4.90348 8.1857 4.98492 8.17033 5.067 8.17116C5.14907 8.17198 5.23018 8.18899 5.30569 8.22119C5.38119 8.2534 5.4496 8.30017 5.507 8.35884L6.49318 9.36507C6.95642 9.23222 7.82139 8.9284 8.37311 8.38768C8.92483 7.84695 9.24598 6.98826 9.38812 6.52779L8.40194 5.52157C8.34444 5.463 8.29905 5.39366 8.26837 5.31753C8.23769 5.24139 8.22232 5.15996 8.22315 5.07788C8.22397 4.9958 8.24097 4.91469 8.27318 4.83919C8.30538 4.76368 8.35216 4.69527 8.41083 4.63787L10.9359 2.16314C11.0565 2.05157 11.2152 1.99034 11.3795 1.99199C11.5438 1.99364 11.7012 2.05806 11.8196 2.17203L13.4968 3.88399C13.7319 4.12387 13.8624 4.45145 13.854 4.7845C13.8307 5.67431 13.564 8.76304 11.1033 11.1747C8.6427 13.5863 5.54925 13.7902 4.65915 13.7956ZM11.3637 3.49314L9.73132 5.09305L10.5313 5.90926C10.6041 5.98334 10.6572 6.07445 10.6858 6.1743C10.7143 6.27415 10.7175 6.37956 10.6949 6.48094C10.6792 6.55266 10.2952 8.25326 9.2473 9.28027C8.19942 10.3073 6.49144 10.657 6.41941 10.6713C6.31761 10.6919 6.21225 10.6867 6.11297 10.6561C6.0137 10.6255 5.92368 10.5705 5.85115 10.4962L5.05119 9.67995L3.41876 11.2799L4.65985 12.5455C5.43994 12.5403 8.11066 12.3577 10.2285 10.2814C12.3533 8.19896 12.584 5.52302 12.6042 4.75881L11.3637 3.49314ZM2.58279 6.89936L1.33285 6.88678C1.3651 3.68069 3.80993 1.28704 7.02039 1.31934L7.00782 2.56927C4.4692 2.54374 2.60829 4.36448 2.58279 6.89936Z" fill="#5F5F5F"/>
<path d="M6.97595 5.06891C5.66164 5.05568 5.09541 5.61064 5.08218 6.92495L3.83225 6.91238C3.85252 4.89685 4.973 3.79869 6.98853 3.81897L6.97595 5.06891Z" fill="#5F5F5F"/>
</svg>
