<svg width="21" height="22" viewBox="0 0 21 22" fill="none" xmlns="http://www.w3.org/2000/svg">
<path d="M6.21201 17.6767L4.55723 15.9892L6.7338 13.8559L7.80041 14.9442C7.89698 15.0436 8.017 15.117 8.1494 15.1578C8.28181 15.1986 8.42236 15.2055 8.5581 15.1777C8.65413 15.1587 10.9314 14.6924 12.3286 13.323C13.7258 11.9537 14.2378 9.68622 14.2588 9.5906C14.2886 9.45542 14.2843 9.31493 14.2462 9.18184C14.2081 9.04875 14.1375 8.92726 14.0406 8.82836L12.974 7.74008L15.1505 5.60687L16.8045 7.29442C16.7776 8.31337 16.47 11.8813 13.6369 14.6579C10.8131 17.4263 7.25213 17.6697 6.21201 17.6767Z" fill="white"/>
<path d="M6.21203 19.3438L6.1887 19.3436C5.74872 19.3392 5.33466 19.1617 5.02284 18.8435L2.78569 16.5609C2.70901 16.4828 2.64849 16.3903 2.60759 16.2888C2.56668 16.1873 2.54619 16.0787 2.54729 15.9693C2.54839 15.8599 2.57106 15.7517 2.614 15.651C2.65694 15.5504 2.71931 15.4592 2.79754 15.3826L6.16424 12.083C6.24233 12.0063 6.33478 11.9458 6.4363 11.9049C6.53781 11.864 6.64639 11.8435 6.75583 11.8446C6.86527 11.8457 6.97342 11.8684 7.07409 11.9113C7.17476 11.9542 7.26597 12.0166 7.34251 12.0948L8.65741 13.4365C9.27506 13.2593 10.4284 12.8543 11.164 12.1333C11.8996 11.4123 12.3278 10.2674 12.5173 9.65344L11.2024 8.31181C11.1258 8.23371 11.0652 8.14126 11.0243 8.03975C10.9834 7.93824 10.9629 7.82965 10.964 7.72022C10.9651 7.61078 10.9878 7.50263 11.0307 7.40196C11.0737 7.30129 11.1361 7.21008 11.2143 7.13354L14.581 3.8339C14.7418 3.68514 14.9534 3.6035 15.1725 3.6057C15.3915 3.60791 15.6015 3.69379 15.7592 3.84576L17.9956 6.12837C18.309 6.4482 18.483 6.88497 18.4718 7.32905C18.4407 8.51547 18.0851 12.6338 14.8043 15.8493C11.5234 19.0648 7.39883 19.3366 6.21203 19.3438ZM15.1515 5.60723L12.9749 7.74044L14.0415 8.82873C14.1386 8.92749 14.2094 9.04898 14.2475 9.18211C14.2856 9.31524 14.2898 9.4558 14.2597 9.59096C14.2388 9.68659 13.7267 11.9541 12.3296 13.3234C10.9324 14.6928 8.65509 15.159 8.55906 15.1781C8.42331 15.2056 8.28283 15.1987 8.15047 15.1579C8.0181 15.1171 7.89807 15.0438 7.80137 14.9446L6.73476 13.8563L4.55819 15.9895L6.21297 17.6771C7.25309 17.6701 10.8141 17.4267 13.6379 14.6583C16.4709 11.8817 16.7785 8.31373 16.8054 7.29479L15.1515 5.60723ZM3.44355 10.1489L1.77697 10.1321C1.81998 5.8573 5.07975 2.66577 9.36036 2.70883L9.3436 4.37541C5.95877 4.34136 3.47755 6.76902 3.44355 10.1489Z" fill="white"/>
<path d="M9.30111 7.70824C7.54869 7.69061 6.79371 8.43055 6.77608 10.183L5.1095 10.1662C5.13653 7.47883 6.63051 6.01462 9.31787 6.04166L9.30111 7.70824Z" fill="white"/>
</svg>
